/vscmnt/brussel_pixiu_data/_data_brussel/112/vsc11236/PredSimResults/SUBJ11mtu3D/weighted-LRposFixed/trackIG/worker_01.mot
version=1
nRows=7
nColumns=50
inDegrees=yes
endheader
                time	         pelvis_tilt	         pelvis_list	     pelvis_rotation	           pelvis_tx	           pelvis_ty	           pelvis_tz	       hip_flexion_r	     hip_adduction_r	      hip_rotation_r	        knee_angle_r	       ankle_angle_r	         mtp_angle_r	       hip_flexion_l	     hip_adduction_l	      hip_rotation_l	        knee_angle_l	       ankle_angle_l	         mtp_angle_l	    lumbar_extension	      lumbar_bending	     lumbar_rotation	 ercspn_r/activation	 intobl_r/activation	 extobl_r/activation	    abd_r/activation	    add_r/activation	hamstrings_r/activation	bifemsh_r/activation	glut_max_r/activation	iliopsoas_r/activation	rect_fem_r/activation	  vasti_r/activation	gastroc_r/activation	 soleus_r/activation	tib_ant_r/activation	 ercspn_l/activation	 intobl_l/activation	 extobl_l/activation	    abd_l/activation	    add_l/activation	hamstrings_l/activation	bifemsh_l/activation	glut_max_l/activation	iliopsoas_l/activation	rect_fem_l/activation	  vasti_l/activation	gastroc_l/activation	 soleus_l/activation	tib_ant_l/activation	
          0.68757285	         -6.32534053	          4.70899952	         -7.93525973	          0.75633014	          0.93687543	          0.01616721	        -12.77201201	         -5.33377077	          3.19525554	         -8.92861774	         11.46749939	         29.83133542	         32.07180286	          1.21740699	         -4.48118216	         -5.28060740	          5.36374001	          0.23352082	         -4.13699762	         -3.52031539	          2.68101639	          0.06634908	          0.00999999	          0.00999999	          0.04189223	          0.03058844	          0.02206093	          0.10904954	          0.03449189	          0.42911173	          0.01000000	          0.01327323	          0.30641523	          0.24440123	          0.00999999	          0.08204768	          0.11325259	          0.02188760	          0.01341471	          0.13104372	          0.04267553	          0.20663834	          0.05890763	          0.07764335	          0.00999999	          0.00999999	          0.02282848	          0.00999999	          0.29425020	
          0.70132431	         -6.42751424	          4.57225077	         -7.92878845	          0.77511326	          0.93499347	          0.01545687	        -12.81093832	         -5.26560994	          2.80765115	        -10.72276489	         10.73493569	         32.00350067	         31.88919054	          1.26191764	         -4.52829194	         -6.70451575	          4.96376918	          0.18804287	         -3.80907511	         -3.82139321	          2.88010330	          0.07974300	          0.00999999	          0.00999999	          0.03408114	          0.02822518	          0.02077774	          0.08871651	          0.02806065	          0.41008380	          0.01000000	          0.02177555	          0.25855621	          0.21737999	          0.00999999	          0.06674934	          0.09931870	          0.01780651	          0.04591190	          0.10660974	          0.05579231	          0.16810923	          0.08380685	          0.06316623	          0.00999999	          0.00999999	          0.01857195	          0.01229190	          0.32662655	
          0.71507577	         -6.50700465	          4.43312074	         -7.87277643	          0.79404236	          0.93359426	          0.01464187	        -12.61539964	         -5.18899557	          2.39910875	        -12.95977577	          9.82829350	         34.20551560	         31.55165881	          1.30463044	         -4.58910012	         -7.88911783	          4.35826260	          0.17884941	         -3.49316987	         -4.12854012	          3.04911250	          0.11125606	          0.00999999	          0.00999999	          0.02772648	          0.02917616	          0.02212117	          0.07217472	          0.02282855	          0.39137631	          0.01000004	          0.01771535	          0.21034666	          0.17684802	          0.00999999	          0.07865675	          0.08080006	          0.01448636	          0.11280193	          0.12945540	          0.05121761	          0.13676413	          0.10747177	          0.05138846	          0.00999999	          0.00999999	          0.01510909	          0.00999999	          0.36921903	
          0.72882722	         -6.56307470	          4.29233513	         -7.77124701	          0.81281103	          0.93288062	          0.01373308	        -12.08814712	         -5.10313384	          1.97589167	        -15.76694121	          8.73289108	         36.32448352	         31.17089717	          1.35705954	         -4.66239185	         -9.00938553	          3.72399045	          0.13606958	         -3.21704522	         -4.44316192	          3.18407366	          0.14271561	          0.00999999	          0.00999999	          0.02255669	          0.05392606	          0.01799654	          0.05871726	          0.01857201	          0.35990508	          0.00999999	          0.01441220	          0.17112610	          0.14387352	          0.00999999	          0.08174530	          0.06573434	          0.01178528	          0.14652119	          0.15305283	          0.04717865	          0.11126354	          0.12640720	          0.04180673	          0.00999999	          0.03998531	          0.01229190	          0.00999999	          0.40277301	
          0.74257868	         -6.59465549	          4.14619062	         -7.62689198	          0.83127566	          0.93292659	          0.01275968	        -11.18731419	         -5.00655330	          1.53359259	        -19.18423915	          7.43618201	         38.15550035	         30.75205018	          1.41542139	         -4.73731830	        -10.12223074	          3.31780136	          0.09967233	         -2.98820034	         -4.76129227	          3.28165314	          0.14858737	          0.00999999	          0.00999999	          0.01835084	          0.07086902	          0.01857197	          0.04776903	          0.01510914	          0.30972271	          0.00999999	          0.01172495	          0.13921849	          0.11704733	          0.00999999	          0.08046940	          0.05347773	          0.00999999	          0.15448766	          0.13397239	          0.04966008	          0.09051770	          0.12187821	          0.03401158	          0.00999999	          0.08782330	          0.00999999	          0.00999999	          0.41952500	
          0.75633014	         -6.60344252	          3.98256221	         -7.44251996	          0.84935405	          0.93373788	          0.01175889	         -9.92390993	         -4.89530298	          1.06450151	        -23.16199288	          5.99674762	         39.29026469	         30.25057582	          1.46942745	         -4.79115472	        -11.12868352	          3.08766787	          0.07121561	         -2.81050232	         -5.07075850	          3.34039348	          0.16198454	          0.00999999	          0.00999999	          0.01492921	          0.08079747	          0.01510910	          0.04657880	          0.01229194	          0.25323366	          0.00999999	          0.00999999	          0.11326026	          0.09522306	          0.00999999	          0.06673924	          0.04350644	          0.00999999	          0.15120356	          0.10899233	          0.04607419	          0.07364006	          0.12015383	          0.02766990	          0.00999999	          0.14128220	          0.00999999	          0.00999999	          0.41835572	
          0.77008160	         -6.59240396	          3.79144741	         -7.21897516	          0.86700212	          0.93534699	          0.01075966	         -8.33187346	         -4.77074608	          0.56890481	        -27.61000681	          4.45783660	         39.36390009	         29.60850750	          1.51609050	         -4.79164257	        -11.91236404	          3.00377289	          0.04856312	         -2.68478146	         -5.35953708	          3.35963037	          0.16954401	          0.00999999	          0.01000000	          0.01214555	          0.09268424	          0.01229190	          0.06967536	          0.01000002	          0.20601653	          0.00999999	          0.00999999	          0.09214212	          0.07746808	          0.01475696	          0.05429526	          0.03539437	          0.00999999	          0.14016339	          0.08866997	          0.04400993	          0.05990938	          0.11637685	          0.02251066	          0.00999999	          0.18012829	          0.01000003	          0.01000001	          0.40972619	
